<?xml version="1.0" encoding="UTF-8" standalone="no"?>
<!-- Created with Inkscape (http://www.inkscape.org/) -->

<svg
   width="230.83069mm"
   height="109.54645mm"
   viewBox="0 0 230.83069 109.54645"
   version="1.1"
   id="svg1"
   xml:space="preserve"
   xmlns="http://www.w3.org/2000/svg"
   xmlns:svg="http://www.w3.org/2000/svg"><defs
     id="defs1" /><g
     id="layer1"
     transform="translate(-22.640149,-56.882334)"><g
       transform="matrix(0.03527778,0,0,-0.03527778,-107.8089,272.61489)"
       fill="#000000"
       stroke="none"
       id="g13"><path
         d="M 7920,4613 V 3150 h -239 c -132,0 -246,-3 -255,-6 -14,-6 -16,39 -16,465 v 471 h -70 -70 v -465 -465 h -255 -255 v 838 839 l -67,-1 -68,-1 v -837 -837 l -243,-3 c -134,-2 -246,-1 -248,1 -2,2 -4,177 -4,388 v 383 h -67 -68 l 3,-385 2,-385 H 4872 c -621,0 -1131,-2 -1133,-4 -2,-2 -2,-34 -1,-70 l 4,-66 h 3249 3250 l -3,68 -3,67 h -237 -238 v 177 178 h -65 -65 v -175 -175 h -143 c -79,0 -178,-3 -220,-6 l -77,-7 v 952 951 h -65 -65 v -945 -945 l -172,-1 c -95,0 -192,-2 -215,-5 l -43,-6 v 361 361 h -70 -70 v -355 -355 h -192 c -106,0 -203,-3 -215,-6 l -23,-6 v 1465 1465 l -70,4 -70,3 z"
         id="path1"
         style="fill:#6e4a30;fill-opacity:1" /><path
         d="m 4759.9374,6101.891 c -233,-43 -442,-161 -645,-365 -219,-221 -360,-464 -407,-700 -44,-225 57,-376 260,-387 60,-4 93,2 202,32 260,72 472,91 925,82 332,-7 418,-17 615,-74 172,-49 262,-52 348,-9 105,51 155,155 143,294 -34,369 -416,871 -797,1046 -87,40 -188,71 -279,85 -87,14 -279,12 -365,-4 z"
         id="path2"
         style="fill:#820008;fill-opacity:1" /><path
         d="m 4640.9374,4604.891 c -11,-126 -33,-264 -76,-478 -52,-256 -64,-346 -58,-436 7,-100 41,-157 118,-196 78,-40 142,-49 330,-49 188,0 252,9 330,49 41,20 62,40 85,77 29,48 30,51 29,174 -1,108 -8,158 -47,351 -53,258 -73,378 -83,503 l -7,87 h -307 -307 z"
         id="path3"
         style="fill:#820008;fill-opacity:1" /></g></g></svg>
